Coordinates
version=1
nRows=14
nColumns=28
inDegrees=yes

Units are S.I. units (second, meters, Newtons, ...)
Angles are in degrees.

endheader
time	pelvis_tilt	pelvis_list	pelvis_rotation	pelvis_tx	pelvis_ty	pelvis_tz	hip_flexion_r	hip_adduction_r	hip_rotation_r	knee_angle_r	ankle_angle_r	subtalar_angle_r	mtp_angle_r	hip_flexion_l	hip_adduction_l	hip_rotation_l	knee_angle_l	socket_flexion	socket_adduction	socket_rotation	socket_tx	socket_ty	socket_tz	foot_flex	lumbar_extension	lumbar_bending	lumbar_rotation
      0.93750000	      6.10570472	     -1.78465507	     -2.09748977	      0.42341669	      1.04118218	      0.29288601	     -1.21629874	      3.87158434	     -8.27014313	    -17.70725690	      6.20924200	     -1.91406520	     15.92045526	      3.40557537	     -1.90562336	      0.24249818	    -55.15635268	     -1.35994667	      0.00000000	      0.00000000	      0.00000000	      0.00000000	      0.00000000	      0.12920214	    -13.37621166	      2.56820665	      3.95982670
      0.94166667	      6.26947804	     -1.41350780	     -2.41691222	      0.42849251	      1.04246294	      0.29365799	     -1.99521633	      3.46516237	     -8.08236952	    -17.07214475	      5.94950421	     -1.22569247	     16.66478750	      3.57659706	     -1.46865894	      0.17833702	    -54.25917273	     -1.07709315	      0.00000000	      0.00000000	      0.00000000	      0.00000000	      0.00000000	      0.13030385	    -13.49672268	      1.97355536	      4.61988270
      0.94583333	      6.24041605	     -1.33665236	     -2.59904393	      0.43306579	      1.04307874	      0.29404262	     -2.40714294	      3.36781025	     -8.05690975	    -16.74881011	      5.92893116	     -1.11371252	     16.70810079	      4.17559424	     -1.35790100	      0.25057907	    -53.90545606	     -1.11938621	      0.00000000	      0.00000000	      0.00000000	      0.00000000	      0.00000000	      0.10598411	    -13.51514515	      1.86215707	      4.67383479
      0.95000000	      6.18771616	     -1.17202675	     -2.82048885	      0.43795493	      1.04383561	      0.29456252	     -2.87298065	      3.19169919	     -7.93272350	    -16.27079928	      5.70007544	     -0.86021271	     16.82241514	      4.66161457	     -1.14511358	      0.34533182	    -53.19956837	     -0.98329884	      0.00000000	      0.00000000	      0.00000000	      0.00000000	      0.00000000	      0.14042556	    -13.43497908	      1.61366203	      4.87479012
      0.95416667	      6.21428182	     -1.18256270	     -3.05436185	      0.44223299	      1.04429593	      0.29495544	     -3.18763504	      3.14773620	     -7.98418434	    -16.24805728	      5.70932264	     -0.84480524	     16.83289060	      5.21458108	     -1.12910569	      0.40210392	    -52.89219217	     -1.11857389	      0.00000000	      0.00000000	      0.00000000	      0.00000000	      0.00000000	      0.15268417	    -13.56829800	      1.60612543	      4.89476114
      0.95833333	      6.09901444	     -1.01398898	     -3.17231633	      0.44719930	      1.04494280	      0.29539316	     -3.70763749	      3.01520932	     -7.76227292	    -15.53771588	      5.68114502	     -0.56131331	     16.91787831	      5.76883009	     -0.91829425	      0.59258609	    -52.11340120	     -0.95796424	      0.00000000	      0.00000000	      0.00000000	      0.00000000	      0.00000000	      0.02703932	    -13.40318296	      1.35122565	      5.11822779
      0.96250000	      6.12279989	     -1.02576112	     -3.41394378	      0.45145216	      1.04528956	      0.29575089	     -4.00973871	      2.96409743	     -7.81219485	    -15.51923829	      5.66649340	     -0.54081201	     16.92550113	      6.30484299	     -0.90423983	      0.65503995	    -51.75235453	     -1.10143201	      0.00000000	      0.00000000	      0.00000000	      0.00000000	      0.00000000	      0.06909879	    -13.53595896	      1.34538423	      5.14719147
      0.96666667	      6.01232167	     -0.79124709	     -3.60532874	      0.45658997	      1.04598593	      0.29630994	     -4.54494267	      2.74428149	     -7.55357053	    -14.77119413	      5.41559870	     -0.18615874	     17.02447561	      6.71623668	     -0.63005115	      0.79858424	    -50.63137398	     -0.76251114	      0.00000000	      0.00000000	      0.00000000	      0.00000000	      0.00000000	      0.10884429	    -13.33179522	      0.99908852	      5.50396121
      0.97083333	      6.24837597	     -0.56988797	     -3.99933025	      0.46103183	      1.04685898	      0.29706395	     -5.17183017	      2.43608808	     -7.36398549	    -14.51017744	      5.18084409	     -0.02101225	     17.57993297	      6.79252507	     -0.37787338	      0.70903213	    -49.61458086	     -0.54589610	      0.00000000	      0.00000000	      0.00000000	      0.00000000	      0.00000000	      0.14614911	    -13.64951534	      0.59118261	      6.07368629
      0.97500000	      6.17982144	     -0.57067484	     -4.13564899	      0.46556485	      1.04717519	      0.29738120	     -5.53502945	      2.42484082	     -7.30985482	    -14.19276797	      5.14173432	      0.10249477	     17.66249782	      7.32155405	     -0.36036029	      0.90413192	    -48.91814656	     -0.51674468	      0.00000000	      0.00000000	      0.00000000	      0.00000000	      0.00000000	      0.09847871	    -13.62842461	      0.57330632	      6.14879834
      0.97916667	      6.13081490	     -0.46627225	     -4.32676831	      0.47019118	      1.04751750	      0.29783393	     -5.94941073	      2.29781444	     -7.19921463	    -13.78704059	      4.92856716	      0.22989501	     17.81015693	      7.76151994	     -0.23334023	      1.06480683	    -48.04555693	     -0.39358945	      0.00000000	      0.00000000	      0.00000000	      0.00000000	      0.00000000	      0.13185293	    -13.59191223	      0.39351379	      6.29633633
      0.98333333	      6.07143360	     -0.47647121	     -4.47496199	      0.47468317	      1.04774352	      0.29817643	     -6.30732552	      2.29213201	     -7.12725503	    -13.49474214	      4.92450840	      0.32368208	     17.89962599	      8.24207351	     -0.22992270	      1.27126981	    -47.25608548	     -0.34132588	      0.00000000	      0.00000000	      0.00000000	      0.00000000	      0.00000000	      0.10187227	    -13.58494780	      0.37317932	      6.41078572
      0.98750000	      6.00257928	     -0.46547559	     -4.62163519	      0.47919807	      1.04792906	      0.29853099	     -6.67599308	      2.27027878	     -7.02726701	    -13.15437918	      4.86720289	      0.43505525	     17.97517304	      8.70556668	     -0.20492556	      1.50137355	    -46.38686426	     -0.25042700	      0.00000000	      0.00000000	      0.00000000	      0.00000000	      0.00000000	      0.08669203	    -13.55047182	      0.31817890	      6.53961342
      0.99166667	      5.96436300	     -0.32648366	     -4.82599945	      0.48385307	      1.04817139	      0.29906416	     -7.11567613	      2.10866797	     -6.86748141	    -12.71276882	      4.61216506	      0.48098274	     18.11264180	      9.06328569	     -0.05959645	      1.65521217	    -45.34347101	     -0.07745472	      0.00000000	      0.00000000	      0.00000000	      0.00000000	      0.00000000	      0.15621174	    -13.52163315	      0.07288524	      6.72956341
